<svg xmlns="http://www.w3.org/2000/svg" xmlns:xlink="http://www.w3.org/1999/xlink" width="500" zoomAndPan="magnify" viewBox="0 0 375 374.999991" height="500" preserveAspectRatio="xMidYMid meet" version="1.0"><defs><clipPath id="aa24ef306e"><path d="M 274 164 L 328.15625 164 L 328.15625 241 L 274 241 Z M 274 164 " clip-rule="nonzero"/></clipPath><clipPath id="6d2ae622a0"><path d="M 160 59.734375 L 207 59.734375 L 207 109 L 160 109 Z M 160 59.734375 " clip-rule="nonzero"/></clipPath></defs><rect x="-37.5" width="450" fill="#ffffff" y="-37.499999" height="449.999989" fill-opacity="1"/><rect x="-37.5" width="450" fill="#ffffff" y="-37.499999" height="449.999989" fill-opacity="1"/><path fill="#cb6ce6" d="M 120.378906 220.246094 C 120.472656 221.378906 120.519531 222.554688 120.570312 223.714844 C 120.636719 225.320312 120.699219 226.84375 120.867188 228.027344 C 121.003906 229 122.414062 231.019531 125.988281 233.496094 C 128.160156 235.085938 130.519531 236.320312 133.0625 237.199219 C 137.183594 238.082031 142.171875 239.773438 142.75 242.824219 L 142.75 242.9375 C 143.304688 246.785156 153.101562 250.914062 159.078125 250.699219 L 159.320312 250.699219 C 164.378906 249.5 168.925781 247.269531 172.964844 244.003906 C 172.757812 243.304688 172.644531 242.589844 172.613281 241.859375 C 172.589844 241.15625 172.648438 240.457031 172.792969 239.765625 C 172.9375 239.074219 173.160156 238.410156 173.46875 237.769531 C 173.773438 237.132812 174.152344 236.542969 174.601562 236 C 175.050781 235.453125 175.558594 234.96875 176.125 234.546875 L 155.800781 195.570312 C 155.363281 195.652344 154.925781 195.699219 154.480469 195.71875 C 153.425781 195.757812 152.394531 195.609375 151.394531 195.269531 C 150.390625 194.933594 149.480469 194.429688 148.660156 193.761719 L 122.777344 211.269531 C 123.011719 212.011719 123.140625 212.769531 123.164062 213.546875 C 123.214844 214.8125 122.996094 216.03125 122.507812 217.203125 C 122.019531 218.375 121.3125 219.386719 120.378906 220.246094 Z M 120.378906 220.246094 " fill-opacity="1" fill-rule="nonzero"/><path fill="#cb6ce6" d="M 190.007812 242.601562 C 189.824219 244.164062 189.253906 245.570312 188.304688 246.820312 C 191.082031 250.019531 194.128906 252.9375 197.441406 255.574219 C 203.332031 260.535156 209.707031 265.21875 211.519531 266.542969 C 215.804688 270.585938 219.53125 275.089844 222.699219 280.058594 C 225.882812 283.929688 228.375 288.207031 230.179688 292.886719 C 230.65625 294.527344 231.417969 296.023438 232.464844 297.375 L 232.574219 297.375 C 234.523438 297.308594 237.816406 299.339844 255.84375 312.929688 L 258.589844 314.988281 C 256.304688 309.324219 252.878906 301.285156 250.289062 295.191406 C 245.578125 284.128906 243.773438 279.839844 243.535156 278.714844 C 243.417969 278.203125 243.414062 277.695312 243.523438 277.183594 C 243.636719 276.671875 243.851562 276.210938 244.171875 275.796875 C 244.695312 275.222656 245.320312 274.785156 246.039062 274.488281 C 246.761719 274.1875 247.511719 274.058594 248.289062 274.097656 C 249.625 273.996094 250.933594 274.148438 252.207031 274.5625 C 253.484375 274.976562 254.632812 275.617188 255.65625 276.484375 C 255.742188 276.597656 255.820312 276.714844 255.886719 276.84375 C 256.25 277.523438 258.734375 279.105469 265.546875 280.238281 C 270.464844 281.027344 275.414062 281.367188 280.394531 281.265625 C 281.152344 281.246094 281.90625 281.1875 282.65625 281.085938 C 287.609375 276.792969 291.710938 271.796875 294.960938 266.101562 C 297.613281 262.152344 299.796875 258.601562 301.414062 255.769531 C 300.507812 254.984375 299.792969 254.050781 299.273438 252.96875 C 298.753906 251.890625 298.46875 250.75 298.417969 249.550781 L 243.113281 235.394531 C 242.714844 236.050781 242.238281 236.648438 241.683594 237.179688 C 241.125 237.714844 240.511719 238.164062 239.832031 238.535156 C 239.15625 238.902344 238.445312 239.179688 237.695312 239.359375 C 236.949219 239.539062 236.1875 239.621094 235.417969 239.601562 C 234.648438 239.578125 233.894531 239.457031 233.15625 239.238281 C 232.417969 239.015625 231.722656 238.703125 231.066406 238.300781 C 230.410156 237.894531 229.820312 237.410156 229.292969 236.847656 C 228.765625 236.285156 228.320312 235.664062 227.957031 234.984375 Z M 190.007812 242.601562 " fill-opacity="1" fill-rule="nonzero"/><path fill="#5271ff" d="M 242.902344 122.78125 L 229.78125 159.988281 C 230.761719 160.707031 231.558594 161.589844 232.167969 162.640625 C 232.777344 163.691406 233.152344 164.816406 233.292969 166.023438 L 262.648438 159.910156 C 262.691406 159.410156 262.78125 158.917969 262.910156 158.433594 C 263.042969 157.945312 263.214844 157.476562 263.425781 157.019531 C 263.636719 156.5625 263.886719 156.128906 264.171875 155.714844 C 264.457031 155.300781 264.777344 154.914062 265.132812 154.558594 C 265.484375 154.199219 265.867188 153.875 266.273438 153.582031 C 266.683594 153.289062 267.117188 153.035156 267.570312 152.816406 C 268.023438 152.597656 268.488281 152.417969 268.972656 152.28125 C 269.457031 152.144531 269.949219 152.050781 270.449219 151.996094 L 280.351562 100.667969 C 279.691406 100.320312 279.085938 99.898438 278.535156 99.398438 L 255.675781 113.078125 C 255.824219 113.679688 255.914062 114.285156 255.9375 114.902344 C 255.964844 115.679688 255.890625 116.445312 255.714844 117.203125 C 255.539062 117.960938 255.265625 118.679688 254.894531 119.367188 C 254.523438 120.050781 254.070312 120.671875 253.535156 121.234375 C 252.996094 121.796875 252.398438 122.28125 251.730469 122.683594 C 251.066406 123.082031 250.359375 123.390625 249.609375 123.605469 C 248.863281 123.816406 248.101562 123.925781 247.324219 123.9375 C 246.546875 123.945312 245.78125 123.851562 245.027344 123.65625 C 244.277344 123.460938 243.5625 123.167969 242.886719 122.78125 Z M 242.902344 122.78125 " fill-opacity="1" fill-rule="nonzero"/><path fill="#38b6ff" d="M 285.308594 101.621094 L 275.402344 152.953125 C 276.042969 153.285156 276.628906 153.691406 277.164062 154.171875 C 277.703125 154.648438 278.175781 155.183594 278.578125 155.777344 C 278.984375 156.371094 279.308594 157.007812 279.554688 157.683594 C 279.800781 158.359375 279.964844 159.054688 280.039062 159.769531 L 320.394531 167.492188 C 320.992188 166.523438 321.753906 165.703125 322.671875 165.03125 C 323.59375 164.359375 324.605469 163.886719 325.710938 163.609375 C 326.742188 153.90625 316.84375 141 315.414062 139.558594 C 313.707031 137.867188 312.378906 135.917969 311.433594 133.707031 C 310.484375 131.5 309.984375 129.195312 309.929688 126.792969 C 309.753906 124.964844 306.792969 119.9375 299.011719 111.304688 C 294.941406 106.792969 290.957031 102.851562 288.5625 100.644531 C 287.542969 101.1875 286.457031 101.511719 285.308594 101.621094 Z M 285.308594 101.621094 " fill-opacity="1" fill-rule="nonzero"/><g clip-path="url(#aa24ef306e)"><path fill="#8a2be2" d="M 274.21875 168.914062 L 306.054688 240.542969 L 306.191406 240.542969 C 307.117188 236.886719 308.414062 232.304688 309.953125 226.894531 C 310.925781 223.496094 311.84375 220.289062 312.425781 218.039062 L 312.566406 217.410156 C 312.714844 216.046875 313.019531 214.71875 313.480469 213.425781 C 313.9375 212.132812 314.542969 210.910156 315.289062 209.761719 C 316.035156 208.609375 316.902344 207.5625 317.894531 206.613281 C 318.886719 205.667969 319.976562 204.847656 321.160156 204.152344 C 321.773438 203.878906 322.328125 203.519531 322.824219 203.066406 C 323.320312 202.613281 323.730469 202.09375 324.058594 201.507812 C 324.386719 200.921875 324.613281 200.300781 324.742188 199.640625 C 324.867188 198.984375 324.886719 198.320312 324.800781 197.65625 C 324.800781 197.285156 324.800781 196.933594 324.828125 196.625 C 325.496094 193.15625 326.617188 189.84375 328.191406 186.679688 C 328.582031 184.691406 328.457031 182.734375 327.8125 180.808594 C 327.253906 180.8125 326.695312 180.761719 326.144531 180.65625 C 325.59375 180.554688 325.054688 180.398438 324.535156 180.1875 C 324.015625 179.980469 323.515625 179.722656 323.046875 179.421875 C 322.574219 179.117188 322.136719 178.769531 321.730469 178.378906 C 321.324219 177.992188 320.960938 177.566406 320.640625 177.109375 C 320.316406 176.648438 320.039062 176.164062 319.8125 175.652344 C 319.582031 175.136719 319.40625 174.609375 319.277344 174.0625 C 319.152344 173.515625 319.078125 172.960938 319.058594 172.398438 L 279.058594 164.757812 C 278.542969 165.730469 277.867188 166.574219 277.03125 167.292969 C 276.195312 168.011719 275.257812 168.550781 274.21875 168.914062 Z M 274.21875 168.914062 " fill-opacity="1" fill-rule="nonzero"/></g><path fill="#8a2be2" d="M 268.832031 169.191406 L 241.570312 224.496094 C 242.410156 225.277344 243.070312 226.1875 243.546875 227.230469 C 244.027344 228.273438 244.289062 229.371094 244.335938 230.515625 L 299.660156 244.695312 C 300.144531 243.902344 300.734375 243.203125 301.4375 242.597656 Z M 268.832031 169.191406 " fill-opacity="1" fill-rule="nonzero"/><path fill="#8a2be2" d="M 227.867188 175.140625 L 234.273438 222.28125 C 234.625 222.222656 234.976562 222.1875 235.332031 222.171875 C 235.917969 222.15625 236.5 222.191406 237.078125 222.28125 L 264.660156 166.277344 C 264.296875 165.832031 263.980469 165.351562 263.714844 164.839844 L 232.207031 171.394531 C 231.191406 173.144531 229.746094 174.394531 227.867188 175.140625 Z M 227.867188 175.140625 " fill-opacity="1" fill-rule="nonzero"/><path fill="#cb6ce6" d="M 160.273438 193.246094 L 180.925781 232.839844 L 181.039062 232.839844 C 181.871094 232.808594 182.691406 232.898438 183.5 233.105469 C 184.308594 233.308594 185.074219 233.625 185.789062 234.050781 C 186.507812 234.476562 187.152344 234.996094 187.71875 235.605469 C 188.289062 236.214844 188.761719 236.894531 189.132812 237.636719 L 226.964844 230.058594 C 227.0625 229.035156 227.335938 228.0625 227.777344 227.140625 C 228.21875 226.214844 228.808594 225.394531 229.539062 224.675781 L 222.84375 175.566406 C 221.699219 175.328125 220.640625 174.875 219.675781 174.207031 C 218.710938 173.542969 217.910156 172.71875 217.277344 171.730469 L 162.894531 187.148438 C 162.878906 188.300781 162.644531 189.402344 162.191406 190.457031 C 161.734375 191.515625 161.097656 192.445312 160.273438 193.246094 Z M 160.273438 193.246094 " fill-opacity="1" fill-rule="nonzero"/><path fill="#8a2be2" d="M 184.488281 126.0625 L 159.914062 180.433594 C 160.542969 180.980469 161.082031 181.605469 161.53125 182.308594 L 215.90625 166.898438 C 215.925781 165.886719 216.113281 164.90625 216.46875 163.960938 L 188.527344 125.648438 C 187.691406 125.941406 186.835938 126.105469 185.953125 126.132812 C 185.460938 126.148438 184.976562 126.125 184.488281 126.0625 Z M 184.488281 126.0625 " fill-opacity="1" fill-rule="nonzero"/><path fill="#8a2be2" d="M 122.011719 154.941406 L 149.625 179.570312 C 150.929688 178.765625 152.34375 178.339844 153.875 178.285156 C 154.359375 178.269531 154.84375 178.296875 155.324219 178.359375 L 179.902344 123.992188 C 179.597656 123.722656 179.3125 123.4375 179.046875 123.132812 L 124.488281 147.65625 C 124.523438 147.921875 124.546875 148.195312 124.554688 148.46875 C 124.601562 149.679688 124.402344 150.84375 123.960938 151.972656 C 123.515625 153.097656 122.867188 154.085938 122.011719 154.941406 Z M 122.011719 154.941406 " fill-opacity="1" fill-rule="nonzero"/><path fill="#cb6ce6" d="M 115.066406 157.472656 L 117.355469 205.613281 C 118.3125 205.949219 119.1875 206.441406 119.972656 207.085938 L 145.855469 189.574219 C 145.621094 188.832031 145.496094 188.074219 145.46875 187.296875 C 145.414062 185.902344 145.683594 184.570312 146.277344 183.300781 L 117.203125 157.394531 C 116.859375 157.449219 116.515625 157.484375 116.171875 157.5 C 115.800781 157.511719 115.433594 157.5 115.066406 157.472656 Z M 115.066406 157.472656 " fill-opacity="1" fill-rule="nonzero"/><path fill="#cb6ce6" d="M 47.152344 168.652344 C 47.394531 171.003906 47.984375 173.265625 48.925781 175.433594 C 49.511719 176.699219 50.167969 177.960938 50.789062 179.171875 C 52.472656 181.75 53.476562 184.570312 53.808594 187.632812 C 53.796875 188.34375 53.839844 189.050781 53.933594 189.753906 C 54.027344 190.460938 54.171875 191.152344 54.371094 191.835938 C 54.566406 192.519531 54.8125 193.183594 55.109375 193.828125 C 55.40625 194.476562 55.746094 195.097656 56.132812 195.691406 C 56.523438 196.289062 56.953125 196.851562 57.421875 197.382812 C 57.894531 197.914062 58.402344 198.410156 58.945312 198.863281 C 59.492188 199.320312 60.066406 199.734375 60.671875 200.105469 C 61.277344 200.476562 61.90625 200.800781 62.5625 201.078125 C 66.667969 203.28125 71.035156 204.632812 75.667969 205.136719 C 76.308594 205.179688 76.855469 205.433594 77.300781 205.894531 C 78.402344 207.226562 79.632812 208.429688 80.992188 209.503906 C 82.347656 210.574219 83.804688 211.492188 85.355469 212.257812 C 86.910156 213.019531 88.527344 213.609375 90.203125 214.03125 C 91.882812 214.449219 93.585938 214.6875 95.316406 214.746094 C 97.972656 214.597656 100.511719 213.972656 102.9375 212.871094 C 103.507812 212.636719 103.964844 212.449219 104.378906 212.320312 C 104.902344 212.167969 105.429688 212.050781 105.96875 211.972656 C 106.144531 211.183594 106.421875 210.433594 106.800781 209.726562 C 107.183594 209.015625 107.652344 208.367188 108.210938 207.789062 C 108.773438 207.207031 109.398438 206.714844 110.09375 206.304688 C 110.792969 205.898438 111.527344 205.59375 112.308594 205.390625 L 109.914062 155.183594 C 109.203125 154.527344 108.617188 153.769531 108.160156 152.914062 L 55.660156 163.605469 C 55.324219 164.335938 54.894531 165.007812 54.367188 165.621094 C 53.84375 166.234375 53.246094 166.765625 52.574219 167.210938 C 51.902344 167.660156 51.183594 168.003906 50.414062 168.253906 C 49.648438 168.5 48.859375 168.636719 48.054688 168.667969 C 47.753906 168.675781 47.453125 168.671875 47.152344 168.652344 Z M 47.152344 168.652344 " fill-opacity="1" fill-rule="nonzero"/><path fill="#8a2be2" d="M 48.363281 150.167969 C 48.332031 150.539062 48.300781 150.898438 48.277344 151.238281 C 48.757812 151.269531 49.234375 151.339844 49.703125 151.449219 C 50.175781 151.558594 50.632812 151.703125 51.078125 151.886719 C 51.523438 152.074219 51.953125 152.292969 52.363281 152.546875 C 52.769531 152.800781 53.15625 153.089844 53.519531 153.410156 C 53.882812 153.726562 54.214844 154.074219 54.519531 154.449219 C 54.824219 154.824219 55.097656 155.21875 55.335938 155.636719 C 55.574219 156.058594 55.777344 156.492188 55.945312 156.945312 C 56.113281 157.398438 56.242188 157.863281 56.332031 158.335938 L 107.160156 147.984375 C 107.300781 146.355469 107.863281 144.886719 108.84375 143.578125 L 84.03125 110.101562 C 82.851562 110.734375 81.589844 111.078125 80.25 111.132812 C 79.40625 111.164062 78.570312 111.070312 77.75 110.859375 C 76.929688 110.648438 76.15625 110.320312 75.429688 109.882812 C 74.703125 109.445312 74.058594 108.914062 73.488281 108.285156 C 72.914062 107.660156 72.445312 106.964844 72.078125 106.199219 C 66.671875 112.179688 61.757812 118.539062 57.339844 125.285156 C 56.796875 129.386719 55.382812 133.164062 53.097656 136.613281 C 53.007812 136.699219 52.914062 136.78125 52.8125 136.851562 C 49.246094 139.46875 48.714844 145.910156 48.363281 150.167969 Z M 48.363281 150.167969 " fill-opacity="1" fill-rule="nonzero"/><path fill="#8a2be2" d="M 87.632812 106.519531 L 112.867188 140.574219 C 113.71875 140.269531 114.601562 140.097656 115.507812 140.058594 L 115.84375 140.058594 L 123.640625 114.511719 C 122.617188 113.832031 121.773438 112.972656 121.113281 111.933594 C 120.453125 110.898438 120.03125 109.773438 119.847656 108.558594 L 88.5 104.074219 C 88.335938 104.933594 88.042969 105.746094 87.632812 106.519531 Z M 87.632812 106.519531 " fill-opacity="1" fill-rule="nonzero"/><path fill="#38b6ff" d="M 84.902344 95.226562 C 86.25 96.164062 87.257812 97.382812 87.917969 98.886719 L 120.550781 103.558594 C 120.761719 103.105469 121.011719 102.671875 121.300781 102.257812 C 121.585938 101.847656 121.90625 101.464844 122.261719 101.109375 C 122.613281 100.753906 122.996094 100.429688 123.402344 100.140625 C 123.8125 99.847656 124.242188 99.59375 124.695312 99.378906 C 125.148438 99.160156 125.613281 98.984375 126.097656 98.847656 C 126.578125 98.710938 127.070312 98.617188 127.570312 98.566406 C 128.070312 98.515625 128.566406 98.503906 129.070312 98.539062 C 129.570312 98.574219 130.0625 98.648438 130.550781 98.769531 L 147.992188 69.363281 C 147.578125 68.914062 147.214844 68.425781 146.902344 67.898438 L 146.75 67.898438 C 146.464844 67.917969 146.179688 67.917969 145.890625 67.898438 C 144.46875 67.8125 143.007812 67.792969 141.550781 67.84375 C 135.609375 68.179688 129.84375 69.371094 124.257812 71.421875 C 118.667969 73.46875 113.5 76.289062 108.75 79.875 C 108.582031 80.0625 108.445312 80.234375 108.328125 80.386719 C 107.8125 81.058594 107.191406 81.609375 106.464844 82.046875 C 105.742188 82.480469 104.960938 82.769531 104.125 82.90625 C 103.183594 83.214844 101.894531 83.644531 100.007812 84.324219 C 94.464844 87.253906 89.429688 90.890625 84.902344 95.226562 Z M 84.902344 95.226562 " fill-opacity="1" fill-rule="nonzero"/><path fill="#5271ff" d="M 128.433594 115.972656 L 120.671875 141.523438 C 121.328125 141.957031 121.910156 142.472656 122.421875 143.066406 L 177.011719 118.542969 C 176.976562 118.277344 176.953125 118.003906 176.945312 117.730469 C 176.902344 116.566406 177.082031 115.441406 177.492188 114.355469 C 177.898438 113.265625 178.5 112.296875 179.296875 111.453125 L 156.417969 71.96875 C 155.859375 72.105469 155.296875 72.183594 154.722656 72.199219 C 153.910156 72.226562 153.105469 72.144531 152.3125 71.949219 L 134.875 101.359375 C 135.4375 101.972656 135.902344 102.652344 136.273438 103.398438 C 136.640625 104.144531 136.894531 104.925781 137.039062 105.746094 C 137.183594 106.566406 137.210938 107.390625 137.117188 108.21875 C 137.027344 109.042969 136.820312 109.84375 136.5 110.609375 C 136.179688 111.378906 135.761719 112.085938 135.238281 112.734375 C 134.714844 113.382812 134.113281 113.945312 133.429688 114.417969 C 132.746094 114.894531 132.007812 115.265625 131.21875 115.527344 C 130.429688 115.792969 129.621094 115.941406 128.789062 115.972656 C 128.65625 115.980469 128.542969 115.972656 128.433594 115.972656 Z M 128.433594 115.972656 " fill-opacity="1" fill-rule="nonzero"/><g clip-path="url(#6d2ae622a0)"><path fill="#38b6ff" d="M 160.773438 69.445312 L 183.625 108.929688 C 184.183594 108.796875 184.75 108.722656 185.324219 108.703125 C 185.863281 108.679688 186.398438 108.710938 186.929688 108.796875 L 206.28125 67.886719 C 205.402344 67.09375 204.714844 66.160156 204.214844 65.089844 C 203.714844 64.015625 203.449219 62.886719 203.410156 61.707031 C 203.394531 61.257812 203.410156 60.808594 203.460938 60.359375 C 200.101562 59.757812 196.714844 59.546875 193.304688 59.722656 C 190.886719 59.78125 188.484375 60.007812 186.097656 60.402344 C 185.84375 60.480469 185.066406 60.851562 184.5 61.117188 C 182.785156 62.085938 180.957031 62.710938 179.007812 62.992188 C 178.46875 63.011719 177.945312 62.933594 177.433594 62.753906 C 173.074219 61.683594 168.652344 61.28125 164.167969 61.550781 C 163.714844 61.550781 163.304688 61.585938 162.90625 61.613281 C 163.015625 62.121094 163.082031 62.636719 163.101562 63.15625 C 163.152344 64.320312 162.972656 65.445312 162.570312 66.535156 C 162.167969 67.625 161.566406 68.59375 160.773438 69.445312 Z M 160.773438 69.445312 " fill-opacity="1" fill-rule="nonzero"/></g><path fill="#38b6ff" d="M 218.199219 67.671875 L 244 107.109375 C 244.761719 106.808594 245.546875 106.617188 246.363281 106.539062 C 247.175781 106.457031 247.984375 106.488281 248.789062 106.636719 C 249.59375 106.78125 250.363281 107.035156 251.097656 107.398438 C 251.828125 107.757812 252.5 108.214844 253.105469 108.765625 L 275.960938 95.074219 C 275.8125 94.480469 275.726562 93.871094 275.703125 93.257812 C 275.640625 91.539062 276.050781 89.941406 276.9375 88.46875 C 275.019531 87.121094 272.410156 85.441406 268.867188 83.359375 C 264.304688 80.636719 259.613281 78.152344 254.800781 75.902344 C 252.546875 75.59375 250.625 74.628906 249.027344 73.015625 L 248.917969 72.878906 C 242.070312 63.519531 226.449219 61.917969 220.820312 62.066406 C 220.742188 63.128906 220.476562 64.144531 220.027344 65.109375 C 219.574219 66.078125 218.964844 66.929688 218.199219 67.671875 Z M 218.199219 67.671875 " fill-opacity="1" fill-rule="nonzero"/><path fill="#5271ff" d="M 210.832031 70.039062 L 191.476562 110.949219 C 191.878906 111.308594 192.246094 111.707031 192.574219 112.136719 C 192.902344 112.566406 193.1875 113.023438 193.429688 113.503906 C 193.671875 113.988281 193.867188 114.488281 194.019531 115.011719 C 194.167969 115.53125 194.265625 116.058594 194.316406 116.597656 C 194.371094 117.136719 194.371094 117.675781 194.320312 118.214844 C 194.269531 118.75 194.171875 119.28125 194.023438 119.800781 C 193.875 120.320312 193.679688 120.824219 193.4375 121.308594 C 193.195312 121.789062 192.910156 122.25 192.585938 122.679688 L 219.699219 159.835938 C 221.09375 158.867188 222.636719 158.351562 224.332031 158.289062 C 224.574219 158.289062 224.8125 158.289062 225.050781 158.289062 L 239.125 118.367188 C 238.863281 117.703125 238.6875 117.019531 238.59375 116.3125 C 238.5 115.601562 238.496094 114.894531 238.578125 114.1875 C 238.660156 113.476562 238.824219 112.789062 239.078125 112.121094 C 239.328125 111.453125 239.65625 110.824219 240.0625 110.238281 L 213.710938 69.996094 C 213.289062 70.070312 212.863281 70.117188 212.4375 70.136719 C 211.898438 70.152344 211.363281 70.121094 210.832031 70.039062 Z M 210.832031 70.039062 " fill-opacity="1" fill-rule="nonzero"/></svg>